<?xml version="1.0" standalone="no"?>
<!DOCTYPE svg PUBLIC "-//W3C//DTD SVG 20010904//EN"
 "http://www.w3.org/TR/2001/REC-SVG-20010904/DTD/svg10.dtd">
<svg version="1.0" xmlns="http://www.w3.org/2000/svg"
 width="415.000000pt" height="415.000000pt" viewBox="0 0 415.000000 415.000000"
 preserveAspectRatio="xMidYMid meet">

<g transform="translate(0.000000,415.000000) scale(0.100000,-0.100000)"
fill="#000000" stroke="none">
<path d="M805 3112 c-35 -24 -54 -54 -157 -262 -65 -129 -118 -237 -118 -240
0 -5 36 -28 420 -265 135 -83 270 -168 300 -187 30 -20 213 -134 405 -253 193
-120 360 -225 373 -233 22 -14 22 -14 21 34 l0 49 -127 76 c-163 97 -1213 736
-1269 772 -24 15 -43 29 -43 32 0 2 43 94 96 202 100 205 145 303 141 303 -1
-1 -20 -13 -42 -28z"/>
<path d="M3364 3013 c29 -65 81 -176 115 -248 l62 -130 -22 -18 c-12 -10 -133
-84 -268 -166 -135 -81 -374 -226 -531 -321 -157 -95 -360 -219 -452 -274
l-168 -101 0 -44 c0 -31 4 -42 13 -38 10 4 1496 924 1505 932 2 2 -52 113
-120 246 -102 203 -128 247 -155 262 l-32 18 53 -118z"/>
<path d="M1156 2925 c-47 -89 -88 -174 -91 -187 -6 -22 1 -30 51 -63 31 -21
118 -60 193 -87 284 -101 379 -146 497 -233 100 -73 228 -196 250 -238 l15
-28 45 60 c52 70 155 160 274 239 91 60 251 132 419 189 124 41 227 91 259
126 l23 25 -90 180 -91 181 -75 -35 c-42 -19 -128 -53 -192 -75 -128 -44 -268
-112 -355 -170 -109 -74 -159 -138 -205 -258 -8 -22 -11 -18 -32 40 -20 54
-37 77 -105 145 -74 72 -96 88 -217 147 -73 36 -181 82 -239 102 -58 21 -137
52 -177 70 l-72 33 -85 -163z"/>
<path d="M1065 3041 l-50 -17 -112 -209 c-62 -115 -112 -209 -110 -211 1 -1
258 -156 570 -343 l568 -342 49 38 c27 21 49 41 50 44 0 3 -50 58 -111 122
-191 202 -311 276 -610 377 -141 48 -256 104 -314 154 l-40 34 92 186 c51 102
87 186 80 185 -6 0 -34 -8 -62 -18z"/>
<path d="M3010 3052 c0 -4 6 -16 14 -27 7 -11 48 -91 89 -179 l77 -159 -37
-33 c-55 -50 -169 -105 -353 -169 -189 -66 -270 -104 -357 -169 -69 -50 -273
-244 -305 -288 -23 -33 -19 -41 42 -83 l39 -27 543 327 c299 180 555 336 571
347 l27 20 -32 56 c-18 32 -69 124 -113 206 l-80 150 -50 17 c-56 20 -75 22
-75 11z"/>
<path d="M1423 1868 c-89 -49 -93 -54 -129 -120 -20 -38 -34 -71 -32 -73 1 -2
55 28 118 66 64 38 127 69 141 69 39 0 79 -42 79 -83 0 -84 -157 -217 -443
-377 l-98 -55 -54 -113 c-52 -109 -54 -115 -38 -138 9 -14 21 -23 27 -21 18 7
485 289 753 454 l252 156 -235 144 c-130 78 -239 143 -242 143 -4 0 -48 -24
-99 -52z"/>
<path d="M2495 1844 c-66 -41 -171 -105 -232 -141 -87 -52 -110 -70 -100 -79
15 -14 967 -591 988 -599 10 -4 22 3 32 19 16 24 15 28 -41 138 l-57 112 -133
77 c-349 203 -477 349 -370 423 43 30 75 19 236 -82 l83 -53 -36 70 c-20 40
-48 80 -67 94 -40 30 -162 97 -174 97 -5 -1 -63 -34 -129 -76z"/>
<path d="M1378 1677 l-126 -72 16 -28 c10 -17 22 -25 31 -22 24 9 261 156 266
165 6 10 -26 30 -47 30 -7 -1 -70 -33 -140 -73z"/>
<path d="M2588 1737 c-16 -13 -4 -23 119 -98 76 -46 143 -85 149 -87 13 -4 38
48 27 59 -20 19 -226 130 -251 134 -15 3 -35 -1 -44 -8z"/>
</g>
</svg>
